<svg width="86" height="44" viewBox="0 0 86 44" fill="none" xmlns="http://www.w3.org/2000/svg">
<path d="M3.31528 31.6078C3.11021 31.8824 3.07603 32.2255 3.11021 32.6373C3.14439 33.049 3.24692 33.3922 3.52035 33.6324C3.5887 33.598 3.62288 33.4951 3.65706 33.2892C3.69124 33.5637 3.72541 34.0098 4.0672 34.0098C4.3748 33.9755 4.23809 33.4265 4.40898 33.3235C4.44315 33.4265 4.54569 33.7696 4.64822 33.7353C5.1609 33.0147 5.12672 31.6422 4.64822 31.5049C4.54569 31.6078 4.47733 32.0882 4.44315 32.4657C4.40898 31.9167 4.34062 31.6078 4.34062 31.299C4.30644 31.1275 4.03302 31.0588 3.72541 31.2647C3.55452 31.4706 3.62288 32.1912 3.52035 32.6029C3.48617 32.2941 3.45199 31.9853 3.38363 31.6422C3.38363 31.5735 3.34946 31.5735 3.31528 31.6078ZM3.55452 25.1225C3.55452 25.3971 3.55452 25.7402 3.5887 26.0147C3.69124 26.1176 4.03302 26.1176 4.27226 26.049C4.54569 25.9461 4.6824 25.8431 4.71658 25.5343C4.71658 25.2255 4.44315 25.0882 4.13555 25.0196C3.99884 24.9853 3.86213 24.9853 3.69124 25.0196C3.62288 25.0196 3.5887 25.0539 3.55452 25.1225ZM5.63939 13.0098C5.63939 13.2843 5.63939 13.5931 5.67357 13.8676C5.50268 13.4902 5.22925 13.6618 5.19507 13.8676C5.19507 14.6569 5.1609 15.4804 5.1609 16.2696C5.12672 16.5441 5.05836 16.7157 4.99001 16.8873C4.99001 16.098 5.02418 15.2745 4.95583 14.5539C4.88747 14.5196 4.78494 14.5539 4.71658 14.5539C3.96466 15.3431 3.21274 16.1667 2.46082 16.9559C2.39247 17.0245 2.28993 16.9559 2.28993 16.8529C2.28993 15.5147 2.28993 14.2108 2.32411 12.8725C2.59754 12.8725 2.83678 12.8725 3.11021 12.8382C3.14439 13.25 3.14439 13.6275 3.17856 14.0392C3.21274 14.5196 3.45199 14.6569 3.62288 14.4853C3.96466 13.9706 4.30644 13.4902 4.64822 12.9755C4.88747 12.9755 5.1609 12.9755 5.40014 12.9755C5.50268 12.9755 5.53685 12.9069 5.63939 12.9069C5.63939 12.9069 5.63939 12.9755 5.63939 13.0098ZM3.00767 19.3922C3.00767 19.9755 3.00767 20.5931 3.04185 21.1765C3.00767 21.2451 2.9735 21.3137 2.93932 21.3824C2.93932 20.5245 2.93932 19.701 2.93932 18.8431C2.93932 18.7402 3.00767 18.6716 3.11021 18.6716C3.2811 18.6716 3.45199 18.6716 3.62288 18.6716C3.65706 18.6716 3.72541 18.7402 3.75959 18.7402C4.23809 18.7402 4.6824 18.7402 5.1609 18.7402C5.19507 19.0833 5.19507 19.4608 5.22925 19.8382C5.12672 19.598 4.99 19.3922 4.88747 19.3922H4.03302C3.96466 19.3922 3.8963 19.4608 3.8963 19.5294C3.93048 20.5931 3.96466 21.6912 3.96466 22.7549C3.99884 22.7892 4.03302 22.8578 4.0672 22.8922C4.13555 22.8922 4.23809 22.8922 4.30644 22.8922C4.34062 22.9265 4.34062 22.9265 4.3748 22.9608C3.93048 22.9608 3.45199 22.9608 3.00767 22.9608C2.9735 22.9265 2.93932 22.8922 2.90514 22.8922C3.17856 22.7892 3.41781 22.6176 3.5887 22.3431C3.55452 21.451 3.52035 20.5588 3.52035 19.701C3.41781 19.598 3.17856 19.4265 3.00767 19.3922ZM2.66589 24.848C2.66589 24.7794 2.66589 24.7108 2.70007 24.6765C3.45199 24.6765 4.54569 24.6422 4.99001 24.7794C5.43432 24.9853 5.50268 25.4314 5.43432 25.8775C5.33179 26.701 4.61405 26.9755 3.69124 27.0098C3.65706 27.0098 3.62288 27.0441 3.62288 27.1127C3.5887 27.5588 3.55452 28.0392 3.55452 28.4853C3.52035 28.7255 3.11021 28.6569 3.11021 28.4167C3.11021 27.2843 3.14439 26.2549 3.14439 25.1225C3.04185 25.0196 2.83678 24.951 2.66589 24.848ZM2.66589 32.4657C2.66589 31.299 3.2811 30.3726 4.0672 30.3726C4.85329 30.3726 5.4685 31.299 5.4685 32.4657C5.4685 33.6324 4.85329 34.5588 4.0672 34.5588C3.31528 34.5588 2.66589 33.598 2.66589 32.4657ZM8.06604 34.0441V12.3235C8.06604 11.4657 7.34829 10.7451 6.45966 10.7451H1.60637C0.71774 10.7451 0 11.4657 0 12.3235V34.0441C0 34.902 0.71774 35.6225 1.60637 35.6225H6.45966C7.34829 35.6225 8.06604 34.9363 8.06604 34.0441ZM26.6931 19.2206C26.7273 18.9804 26.8298 18.7402 26.7273 18.3627C26.2488 16.5098 25.7703 14.6569 25.2918 12.8039C21.498 12.1176 21.3613 16.3382 18.5245 19.152C18.2169 16.5098 17.4308 14.8284 16.1321 14.4167C16.2004 13.8676 16.1321 13.3529 15.927 12.8039C15.7903 12.8039 15.6194 12.8039 15.4827 12.8382C15.4827 12.3922 15.5169 11.9118 15.5169 11.4657H14.6966C14.6966 11.7059 14.6966 11.9804 14.7308 12.2206C14.8675 12.2206 14.9358 12.2206 15.0384 12.2549C14.9358 17.0931 13.6029 18.5 11.4155 17.6422C9.80912 21.8627 9.74076 26.8382 9.15973 31.4706C9.53569 31.5049 9.91165 31.5735 10.2876 31.6078C10.2876 33.2549 11.5522 34.6275 12.4067 36C14.5257 34.7647 14.013 26.9755 15.3118 22.9265C15.5169 22.9265 15.7219 22.9608 15.927 22.9608C16.0979 24.951 16.2688 26.9412 16.4397 28.9314C17.4308 29.2402 18.422 29.5147 19.4473 29.8235C20.6436 23.5441 21.874 19.2549 24.6766 19.049C24.745 21.5539 24.8133 24.0931 24.8817 26.598C24.8817 27.25 25.5311 27.0441 25.5994 26.598C25.7703 24.0588 25.9754 21.5882 26.6931 19.2206ZM33.3237 21.3824C32.9477 21.4853 32.5717 21.6225 32.1958 21.7255C32.3325 20.7647 32.4009 18.8431 32.5717 18.7745C33.3237 18.5686 33.9047 21.2108 33.3237 21.3824ZM38.1428 22.5147C38.2453 22.5147 38.3478 22.4804 38.4846 22.4804C37.3567 17.9167 37.9035 12.4951 35.8187 8H32.5376C31.3755 13.9706 29.1198 19.3922 28.1286 25.2598C27.9235 25.3971 27.7185 25.5 27.5134 25.6373C27.4792 24.299 27.5134 22.9265 27.445 21.5882C27.1374 21.8971 26.7273 22.2059 26.4197 22.5147C25.907 27.0441 26.1804 31.3676 26.5906 35.6912C27.8552 35.4167 29.2223 35.2451 30.7261 35.2794C31.0337 29.9951 30.316 23.0294 34.1781 23.2696C34.6566 25.5686 35.0326 27.8333 35.5111 30.1324C36.0579 29.7892 36.5706 29.4804 37.1174 29.1373C37.0149 28.1078 36.9807 27.0784 36.8782 26.049C37.0491 26.152 37.22 26.2206 37.3909 26.3235C37.4934 26.7353 37.5617 27.1471 37.6643 27.5588C37.801 27.4559 37.9377 27.3529 38.0744 27.2157C38.1086 25.6373 38.1428 24.0588 38.1428 22.5147ZM51.5064 25.9804C52.19 22.8578 52.7027 19.4951 52.4976 15.3775C52.0191 15.1373 51.233 14.8971 51.0621 14.6569C50.8229 13.9363 50.5836 13.1814 50.3444 12.4951C50.0368 12.598 49.695 12.6667 49.3874 12.7696C48.4646 15.2745 48.4646 18.2941 48.5329 21.3824C48.4304 23.5784 47.4392 23.9216 46.1746 23.098C45.662 22.8578 45.0468 22.4118 44.3974 22.0343C43.8163 18.9461 45.0126 16.9902 45.0126 14.5196C44.8075 13.9706 44.4999 13.6961 43.7822 13.6618C43.3379 13.6275 42.8935 13.6618 42.4834 13.6618C42.1758 13.6618 41.9707 13.9706 41.9365 14.2794C41.6631 16.2696 41.6289 18.3627 41.2188 20.3529C40.8087 21.4167 40.0226 22.3775 39.339 23.3382C39.6124 23.3039 39.8859 23.2696 40.1251 23.2353C40.4669 23.1324 40.5694 23.4412 40.6036 23.7843C40.6036 24.0588 40.6378 24.3333 40.6378 24.5735C40.4669 24.5735 40.3644 24.6078 40.1935 24.6078C40.1935 24.402 40.1593 24.1961 40.1251 23.9902H39.715C39.8175 25.1226 39.8175 25.8775 39.715 26.7353C39.4757 28.0735 39.2023 29.4804 39.0656 31.0245C38.8263 31.1961 38.5871 31.402 38.3478 31.5735C38.3478 31.0931 38.382 30.6471 38.3478 30.1667H37.9377C38.0061 30.9216 38.1086 31.6765 38.2111 32.4314C38.7238 32.5343 39.2365 32.6373 39.7491 32.7745C40.672 36.2402 43.3379 36.549 43.2353 31.9853C43.2011 29.5833 43.4746 27.6275 45.9354 27.5245C45.8329 26.9412 45.7303 26.2892 45.5936 25.7059C46.4139 25.8431 47.3367 26.2206 48.4646 27.0784C48.6696 27.25 48.7722 27.5588 48.8405 28.0049C49.0456 29.4461 49.2165 30.8873 49.4557 32.3284C49.8659 32.4657 50.3102 32.5686 50.7203 32.7059C50.7545 30.6127 50.8229 28.5196 50.857 26.4608C51.1305 26.3578 51.4381 26.1863 51.5064 25.9804ZM69.279 24.2304C70.2702 21.1078 70.612 17.4706 69.9968 13.1814C68.4246 12.4265 67.5701 10.951 67.8094 8.61765C65.5878 9.71569 66.1688 13.0098 65.4511 18.4657C64.0498 26.701 61.5206 32.2598 57.3509 31.8137C56.9407 26.9755 57.1116 22.4118 57.3851 17.951C57.5559 17.9167 57.7268 17.9167 57.8977 17.8824C57.7952 16.4069 57.6927 14.9657 57.5901 13.4902C57.2142 13.4559 56.7357 13.3873 56.3597 13.3186C55.8129 14.4167 55.1635 15.4461 54.0356 16.2353C54.0014 14.8971 54.1723 13.8676 54.5141 12.8039C54.6166 12.2892 54.8901 12.0147 55.3002 11.8088C55.642 11.5343 55.7445 11.1569 55.7445 10.848C55.3685 10.8137 55.0268 10.7451 54.6508 10.7108C51.7457 20.3529 52.8052 26.2549 54.4799 31.6422C54.6508 32.0882 54.8559 32.4314 55.0268 32.6373C56.1888 33.7353 57.5559 34.799 58.8547 35.8284C61.1446 35.6569 62.5118 34.5588 63.2295 32.8088C63.0586 32.8088 62.8536 32.7745 62.6827 32.7745V33.5294C62.2725 33.5637 61.794 33.6324 61.3839 33.6667C62.6143 31.6765 63.3321 29.5833 64.289 27.7304C64.5966 27.1471 65.3144 26.6667 65.6562 26.4608C65.6562 27.25 65.622 28.0392 65.622 28.8284C65.3144 29.0343 65.0751 29.2745 64.7675 29.4804C64.7334 30.201 64.5966 30.9902 64.5625 31.7451H65.0068C65.1093 31.3676 65.246 30.9216 65.3486 30.5098C65.622 30.4069 65.8954 30.3382 66.203 30.2353C66.2372 30.75 66.2714 31.2647 66.3397 31.7794C66.7157 31.848 67.1258 31.9167 67.536 31.9853C67.2967 30.4069 67.2967 28.8627 67.6727 27.3873C67.8777 27.25 68.0486 27.1471 68.1853 27.1127C68.2195 27.3873 68.2879 27.6618 68.3221 27.902H68.8006C68.8006 26.8039 68.8347 25.7059 68.8347 24.6078C68.9373 24.5049 69.1081 24.3676 69.279 24.2304ZM80.1135 19.4608C79.9768 19.8039 79.8401 20.1127 79.7034 20.2843C79.3958 20.4216 79.054 20.4559 78.7464 20.3873C75.602 19.3922 75.021 17.402 75.2602 15.3431C76.0121 16.0294 76.6957 16.7157 77.4476 17.3676V16.5784C77.2084 16.3382 77.0033 16.1324 76.764 15.9265C76.6273 15.6176 76.6957 15.2059 76.9008 14.9657C77.721 16.5098 78.7806 18.0196 80.1135 19.4608ZM85.3086 12.2892C85.0352 12.3235 84.8301 12.3578 84.5225 12.3922C84.4883 12.9755 84.4541 13.5931 84.4199 14.1765C83.1895 14.3137 81.7541 12.8039 80.6262 11.2598C77.9261 8.20588 76.5932 8.30882 75.021 11.6716C73.3462 11.8775 72.8677 13.0441 72.6627 14.1765H72.1158C72.0475 14.8971 71.9791 15.652 71.9108 16.3725C72.1158 16.4069 72.3892 16.4755 72.5943 16.5098C72.6627 17.848 73.7906 19.1176 75.9438 20.3873V20.7304C73.3121 23.8873 70.6803 27.0441 68.0828 30.201C68.1853 30.8873 68.2879 31.5392 68.4246 32.2255C69.4841 32.5686 70.236 33.0833 70.8171 33.701C73.3121 31.8137 75.5678 29.652 77.6527 27.3186C77.6185 27.1471 77.516 26.8382 77.4818 26.6667C76.6615 27.5588 75.9096 28.5539 75.0893 29.4461C74.9868 29.3088 74.8842 29.1716 74.7817 29.0343C75.1577 28.6226 75.5678 28.1765 75.9438 27.7647C76.0463 27.4902 75.8412 27.0784 75.9438 26.7696C76.9349 25.6373 77.7894 24.6422 79.0882 21.8284C79.2932 21.8627 79.6008 21.8971 79.8059 21.9314C79.9426 21.5539 80.0452 21.1765 80.1819 20.799C80.3869 20.799 80.5578 20.7647 80.7629 20.7647C81.7199 22.9608 81.5832 28.1765 81.6173 32.2941C81.7541 32.2941 81.9249 32.3284 82.0617 32.3284C82.1984 31.0588 82.3009 29.8235 82.4376 28.5539H82.9503C82.9161 29.9265 82.8478 31.299 82.8136 32.7059C83.463 32.6716 84.0782 32.6373 84.7275 32.6029C86.0947 23.9216 86.4706 17.4706 85.3086 12.2892Z" fill="#F01937"/>
</svg>
